<mxfile host="app.diagrams.net" agent="Mozilla/5.0 (Windows NT 10.0; Win64; x64) AppleWebKit/537.36 (KHTML, like Gecko) Chrome/131.0.0.0 Safari/537.36" version="24.8.6">
  <diagram id="prtHgNgQTEPvFCAcTncT" name="Page-1">
    <mxGraphModel dx="2415" dy="824" grid="1" gridSize="10" guides="1" tooltips="1" connect="1" arrows="1" fold="1" page="1" pageScale="1" pageWidth="827" pageHeight="1169" math="0" shadow="0">
      <root>
        <mxCell id="0" />
        <mxCell id="1" parent="0" />
        <mxCell id="dNxyNK7c78bLwvsdeMH5-11" value="Raspberry Pi 4" style="swimlane;html=1;startSize=20;horizontal=1;containerType=tree;glass=0;" parent="1" vertex="1">
          <mxGeometry x="40" y="100" width="320" height="540" as="geometry" />
        </mxCell>
        <mxCell id="2JFQQ8UHhfo3gJUFawYB-4" value="NodeJS" style="swimlane;html=1;startSize=20;horizontal=1;containerType=tree;glass=0;" vertex="1" parent="dNxyNK7c78bLwvsdeMH5-11">
          <mxGeometry x="40" y="70" width="250" height="160" as="geometry" />
        </mxCell>
        <mxCell id="2JFQQ8UHhfo3gJUFawYB-2" value="Home Assistant" style="swimlane;html=1;startSize=20;horizontal=1;containerType=tree;glass=0;" vertex="1" parent="dNxyNK7c78bLwvsdeMH5-11">
          <mxGeometry x="40" y="270" width="250" height="240" as="geometry" />
        </mxCell>
        <mxCell id="2JFQQ8UHhfo3gJUFawYB-25" value="VPN Server" style="swimlane;" vertex="1" parent="1">
          <mxGeometry x="-340" y="170" width="200" height="200" as="geometry" />
        </mxCell>
        <mxCell id="2JFQQ8UHhfo3gJUFawYB-14" value="Nginx" style="rounded=0;whiteSpace=wrap;html=1;" vertex="1" parent="2JFQQ8UHhfo3gJUFawYB-25">
          <mxGeometry x="50" y="55" width="95" height="40" as="geometry" />
        </mxCell>
        <mxCell id="2JFQQ8UHhfo3gJUFawYB-28" value="MySQL" style="rounded=0;whiteSpace=wrap;html=1;" vertex="1" parent="2JFQQ8UHhfo3gJUFawYB-25">
          <mxGeometry x="50" y="125" width="95" height="40" as="geometry" />
        </mxCell>
        <mxCell id="2JFQQ8UHhfo3gJUFawYB-29" style="edgeStyle=orthogonalEdgeStyle;rounded=0;orthogonalLoop=1;jettySize=auto;html=1;exitX=1;exitY=0.5;exitDx=0;exitDy=0;entryX=0;entryY=0.5;entryDx=0;entryDy=0;" edge="1" parent="1" source="2JFQQ8UHhfo3gJUFawYB-14" target="2JFQQ8UHhfo3gJUFawYB-2">
          <mxGeometry relative="1" as="geometry" />
        </mxCell>
        <mxCell id="2JFQQ8UHhfo3gJUFawYB-30" style="edgeStyle=orthogonalEdgeStyle;rounded=0;orthogonalLoop=1;jettySize=auto;html=1;exitX=0;exitY=0.75;exitDx=0;exitDy=0;entryX=1;entryY=0.5;entryDx=0;entryDy=0;" edge="1" parent="1" source="2JFQQ8UHhfo3gJUFawYB-4" target="2JFQQ8UHhfo3gJUFawYB-28">
          <mxGeometry relative="1" as="geometry">
            <Array as="points">
              <mxPoint x="80" y="315" />
            </Array>
          </mxGeometry>
        </mxCell>
        <mxCell id="2JFQQ8UHhfo3gJUFawYB-36" value="Access Point (192.168.0.1/24)" style="swimlane;" vertex="1" parent="1">
          <mxGeometry x="-80" y="50" width="740" height="640" as="geometry" />
        </mxCell>
        <mxCell id="2JFQQ8UHhfo3gJUFawYB-5" value="IoT Devices" style="rounded=0;whiteSpace=wrap;html=1;" vertex="1" parent="2JFQQ8UHhfo3gJUFawYB-36">
          <mxGeometry x="580" y="250" width="120" height="60" as="geometry" />
        </mxCell>
        <mxCell id="2JFQQ8UHhfo3gJUFawYB-42" value="iputils" style="rounded=0;whiteSpace=wrap;html=1;" vertex="1" parent="2JFQQ8UHhfo3gJUFawYB-36">
          <mxGeometry x="237.5" y="217" width="95" height="40" as="geometry" />
        </mxCell>
        <mxCell id="2JFQQ8UHhfo3gJUFawYB-43" value="Smart&lt;br&gt;Assistant" style="rounded=0;whiteSpace=wrap;html=1;" vertex="1" parent="2JFQQ8UHhfo3gJUFawYB-36">
          <mxGeometry x="237.5" y="495" width="95" height="40" as="geometry" />
        </mxCell>
        <mxCell id="2JFQQ8UHhfo3gJUFawYB-46" value="Restful&lt;div&gt;API&lt;/div&gt;" style="rounded=0;whiteSpace=wrap;html=1;" vertex="1" parent="2JFQQ8UHhfo3gJUFawYB-36">
          <mxGeometry x="237.5" y="435" width="95" height="40" as="geometry" />
        </mxCell>
        <mxCell id="2JFQQ8UHhfo3gJUFawYB-51" value="IoT&lt;br&gt;Integrations" style="rounded=0;whiteSpace=wrap;html=1;" vertex="1" parent="2JFQQ8UHhfo3gJUFawYB-36">
          <mxGeometry x="237.5" y="370" width="95" height="40" as="geometry" />
        </mxCell>
        <mxCell id="2JFQQ8UHhfo3gJUFawYB-3" value="Restful&lt;div&gt;API&lt;/div&gt;" style="rounded=0;whiteSpace=wrap;html=1;" vertex="1" parent="2JFQQ8UHhfo3gJUFawYB-36">
          <mxGeometry x="237.5" y="160" width="95" height="40" as="geometry" />
        </mxCell>
        <mxCell id="2JFQQ8UHhfo3gJUFawYB-37" style="edgeStyle=orthogonalEdgeStyle;rounded=0;orthogonalLoop=1;jettySize=auto;html=1;exitX=1;exitY=0.5;exitDx=0;exitDy=0;entryX=0;entryY=0.5;entryDx=0;entryDy=0;" edge="1" parent="1" source="2JFQQ8UHhfo3gJUFawYB-4" target="2JFQQ8UHhfo3gJUFawYB-5">
          <mxGeometry relative="1" as="geometry" />
        </mxCell>
        <mxCell id="2JFQQ8UHhfo3gJUFawYB-38" style="edgeStyle=orthogonalEdgeStyle;rounded=0;orthogonalLoop=1;jettySize=auto;html=1;exitX=1;exitY=0.5;exitDx=0;exitDy=0;entryX=0;entryY=0.5;entryDx=0;entryDy=0;" edge="1" parent="1" source="2JFQQ8UHhfo3gJUFawYB-2" target="2JFQQ8UHhfo3gJUFawYB-5">
          <mxGeometry relative="1" as="geometry" />
        </mxCell>
        <mxCell id="2JFQQ8UHhfo3gJUFawYB-40" style="edgeStyle=orthogonalEdgeStyle;rounded=0;orthogonalLoop=1;jettySize=auto;html=1;exitX=1;exitY=0.5;exitDx=0;exitDy=0;entryX=0;entryY=0.5;entryDx=0;entryDy=0;" edge="1" parent="1" source="2JFQQ8UHhfo3gJUFawYB-39" target="2JFQQ8UHhfo3gJUFawYB-14">
          <mxGeometry relative="1" as="geometry" />
        </mxCell>
        <mxCell id="2JFQQ8UHhfo3gJUFawYB-39" value="Vue.js" style="rounded=0;whiteSpace=wrap;html=1;" vertex="1" parent="1">
          <mxGeometry x="-580" y="225" width="95" height="40" as="geometry" />
        </mxCell>
        <mxCell id="2JFQQ8UHhfo3gJUFawYB-44" value="ChatGPT" style="rounded=0;whiteSpace=wrap;html=1;" vertex="1" parent="1">
          <mxGeometry x="732" y="430" width="95" height="40" as="geometry" />
        </mxCell>
        <mxCell id="2JFQQ8UHhfo3gJUFawYB-45" style="edgeStyle=orthogonalEdgeStyle;rounded=0;orthogonalLoop=1;jettySize=auto;html=1;exitX=1;exitY=0.75;exitDx=0;exitDy=0;entryX=0;entryY=0.5;entryDx=0;entryDy=0;" edge="1" parent="1" source="2JFQQ8UHhfo3gJUFawYB-2" target="2JFQQ8UHhfo3gJUFawYB-44">
          <mxGeometry relative="1" as="geometry" />
        </mxCell>
        <mxCell id="2JFQQ8UHhfo3gJUFawYB-52" style="edgeStyle=orthogonalEdgeStyle;rounded=0;orthogonalLoop=1;jettySize=auto;html=1;exitX=1;exitY=0.5;exitDx=0;exitDy=0;entryX=0;entryY=0.5;entryDx=0;entryDy=0;" edge="1" parent="1" source="2JFQQ8UHhfo3gJUFawYB-14" target="2JFQQ8UHhfo3gJUFawYB-4">
          <mxGeometry relative="1" as="geometry" />
        </mxCell>
      </root>
    </mxGraphModel>
  </diagram>
</mxfile>
